<mxfile host="app.diagrams.net" modified="2021-10-21T13:20:23.546Z" agent="5.0 (Windows NT 10.0; Win64; x64) AppleWebKit/537.36 (KHTML, like Gecko) Chrome/94.0.4606.81 Safari/537.36" etag="N53D42FZX7FO1yvk1wZo" version="15.5.7" type="github">
  <diagram id="d7R6Zg0zZ_V1Z50zavkv" name="等级积分">
    <mxGraphModel dx="1422" dy="761" grid="0" gridSize="10" guides="1" tooltips="1" connect="1" arrows="1" fold="1" page="1" pageScale="1" pageWidth="1169" pageHeight="827" math="0" shadow="0">
      <root>
        <mxCell id="0" />
        <mxCell id="1" parent="0" />
        <mxCell id="tLoSisrGPmiNnULd8fJE-1" value="" style="rounded=0;whiteSpace=wrap;html=1;" vertex="1" parent="1">
          <mxGeometry x="40" y="39" width="1107" height="648" as="geometry" />
        </mxCell>
        <mxCell id="tLoSisrGPmiNnULd8fJE-2" value="市场信息" style="text;html=1;strokeColor=none;fillColor=none;align=center;verticalAlign=middle;whiteSpace=wrap;rounded=0;" vertex="1" parent="1">
          <mxGeometry x="68" y="60" width="80" height="30" as="geometry" />
        </mxCell>
        <mxCell id="tLoSisrGPmiNnULd8fJE-3" value="等级积分" style="text;html=1;align=center;verticalAlign=middle;whiteSpace=wrap;rounded=0;fillColor=#dae8fc;strokeColor=#6c8ebf;" vertex="1" parent="1">
          <mxGeometry x="71" y="109" width="72" height="30" as="geometry" />
        </mxCell>
        <mxCell id="tLoSisrGPmiNnULd8fJE-4" value="采购" style="text;html=1;align=center;verticalAlign=middle;whiteSpace=wrap;rounded=0;" vertex="1" parent="1">
          <mxGeometry x="253" y="109" width="72" height="30" as="geometry" />
        </mxCell>
        <mxCell id="tLoSisrGPmiNnULd8fJE-5" value="出库" style="text;html=1;align=center;verticalAlign=middle;whiteSpace=wrap;rounded=0;" vertex="1" parent="1">
          <mxGeometry x="337.5" y="109" width="72" height="30" as="geometry" />
        </mxCell>
        <mxCell id="tLoSisrGPmiNnULd8fJE-6" value="&lt;font style=&quot;font-size: 40px&quot;&gt;+&lt;/font&gt;" style="text;html=1;strokeColor=none;fillColor=none;align=center;verticalAlign=middle;whiteSpace=wrap;rounded=0;" vertex="1" parent="1">
          <mxGeometry x="65" y="164" width="60" height="30" as="geometry" />
        </mxCell>
        <mxCell id="tLoSisrGPmiNnULd8fJE-7" value="搜索" style="text;html=1;strokeColor=none;fillColor=none;align=center;verticalAlign=middle;whiteSpace=wrap;rounded=0;fontSize=12;" vertex="1" parent="1">
          <mxGeometry x="157" y="165" width="60" height="30" as="geometry" />
        </mxCell>
        <mxCell id="tLoSisrGPmiNnULd8fJE-8" value="单号+产品类型" style="rounded=1;whiteSpace=wrap;html=1;fontSize=12;" vertex="1" parent="1">
          <mxGeometry x="236" y="162" width="482" height="36" as="geometry" />
        </mxCell>
        <mxCell id="tLoSisrGPmiNnULd8fJE-9" value="用户名：" style="text;html=1;strokeColor=none;fillColor=none;align=center;verticalAlign=middle;whiteSpace=wrap;rounded=0;fontSize=12;" vertex="1" parent="1">
          <mxGeometry x="1054" y="50" width="60" height="30" as="geometry" />
        </mxCell>
        <mxCell id="tLoSisrGPmiNnULd8fJE-10" value="身份图标" style="text;html=1;strokeColor=none;fillColor=none;align=center;verticalAlign=middle;whiteSpace=wrap;rounded=0;fontSize=12;" vertex="1" parent="1">
          <mxGeometry x="943" y="50" width="60" height="30" as="geometry" />
        </mxCell>
        <mxCell id="tLoSisrGPmiNnULd8fJE-11" value="进销存信息" style="text;html=1;align=center;verticalAlign=middle;whiteSpace=wrap;rounded=0;" vertex="1" parent="1">
          <mxGeometry x="159" y="60" width="80" height="30" as="geometry" />
        </mxCell>
        <mxCell id="tLoSisrGPmiNnULd8fJE-12" value="借出" style="text;html=1;strokeColor=none;fillColor=none;align=center;verticalAlign=middle;whiteSpace=wrap;rounded=0;" vertex="1" parent="1">
          <mxGeometry x="429" y="109" width="67" height="30" as="geometry" />
        </mxCell>
        <mxCell id="tLoSisrGPmiNnULd8fJE-13" value="售后" style="text;html=1;strokeColor=none;fillColor=none;align=center;verticalAlign=middle;whiteSpace=wrap;rounded=0;" vertex="1" parent="1">
          <mxGeometry x="268" y="60" width="80" height="30" as="geometry" />
        </mxCell>
        <mxCell id="tLoSisrGPmiNnULd8fJE-14" value="个人信息" style="text;html=1;strokeColor=none;fillColor=none;align=center;verticalAlign=middle;whiteSpace=wrap;rounded=0;" vertex="1" parent="1">
          <mxGeometry x="475" y="62" width="80" height="30" as="geometry" />
        </mxCell>
        <mxCell id="tLoSisrGPmiNnULd8fJE-15" value="积分兑换申请" style="text;html=1;strokeColor=none;fillColor=none;align=center;verticalAlign=middle;whiteSpace=wrap;rounded=0;" vertex="1" parent="1">
          <mxGeometry x="161.5" y="109" width="80.5" height="30" as="geometry" />
        </mxCell>
        <mxCell id="tLoSisrGPmiNnULd8fJE-22" value="时间" style="rounded=1;whiteSpace=wrap;html=1;" vertex="1" parent="1">
          <mxGeometry x="740" y="162" width="71" height="34" as="geometry" />
        </mxCell>
        <mxCell id="tLoSisrGPmiNnULd8fJE-23" value="产品类型" style="rounded=1;whiteSpace=wrap;html=1;" vertex="1" parent="1">
          <mxGeometry x="250" y="212" width="71" height="34" as="geometry" />
        </mxCell>
        <mxCell id="tLoSisrGPmiNnULd8fJE-24" value="已选关键字" style="text;html=1;strokeColor=none;fillColor=none;align=center;verticalAlign=middle;whiteSpace=wrap;rounded=0;" vertex="1" parent="1">
          <mxGeometry x="163" y="212" width="69" height="30" as="geometry" />
        </mxCell>
        <mxCell id="tLoSisrGPmiNnULd8fJE-25" value="X" style="rounded=1;whiteSpace=wrap;html=1;" vertex="1" parent="1">
          <mxGeometry x="305" y="202" width="25" height="23" as="geometry" />
        </mxCell>
        <mxCell id="tLoSisrGPmiNnULd8fJE-26" value="时间段" style="rounded=1;whiteSpace=wrap;html=1;" vertex="1" parent="1">
          <mxGeometry x="353" y="212" width="71" height="34" as="geometry" />
        </mxCell>
        <mxCell id="tLoSisrGPmiNnULd8fJE-27" value="时间段" style="rounded=1;whiteSpace=wrap;html=1;" vertex="1" parent="1">
          <mxGeometry x="353" y="212" width="71" height="34" as="geometry" />
        </mxCell>
        <mxCell id="tLoSisrGPmiNnULd8fJE-28" value="X" style="rounded=1;whiteSpace=wrap;html=1;" vertex="1" parent="1">
          <mxGeometry x="409.5" y="204" width="25" height="23" as="geometry" />
        </mxCell>
        <mxCell id="tLoSisrGPmiNnULd8fJE-40" value="单号" style="rounded=1;whiteSpace=wrap;html=1;" vertex="1" parent="1">
          <mxGeometry x="460" y="210" width="71" height="34" as="geometry" />
        </mxCell>
        <mxCell id="tLoSisrGPmiNnULd8fJE-41" value="X" style="rounded=1;whiteSpace=wrap;html=1;" vertex="1" parent="1">
          <mxGeometry x="512" y="206" width="25" height="23" as="geometry" />
        </mxCell>
        <mxCell id="tLoSisrGPmiNnULd8fJE-42" value="记录" style="text;html=1;align=center;verticalAlign=middle;whiteSpace=wrap;rounded=0;" vertex="1" parent="1">
          <mxGeometry x="512" y="109" width="80" height="30" as="geometry" />
        </mxCell>
        <mxCell id="tLoSisrGPmiNnULd8fJE-43" value="统计" style="text;html=1;strokeColor=none;fillColor=none;align=center;verticalAlign=middle;whiteSpace=wrap;rounded=0;" vertex="1" parent="1">
          <mxGeometry x="604" y="109" width="80" height="30" as="geometry" />
        </mxCell>
        <mxCell id="tLoSisrGPmiNnULd8fJE-50" value="审批" style="text;html=1;align=center;verticalAlign=middle;whiteSpace=wrap;rounded=0;" vertex="1" parent="1">
          <mxGeometry x="700" y="109" width="80" height="30" as="geometry" />
        </mxCell>
        <mxCell id="tLoSisrGPmiNnULd8fJE-51" value="财务信息" style="text;html=1;strokeColor=#6c8ebf;fillColor=#dae8fc;align=center;verticalAlign=middle;whiteSpace=wrap;rounded=0;" vertex="1" parent="1">
          <mxGeometry x="368" y="60" width="80" height="30" as="geometry" />
        </mxCell>
        <mxCell id="tLoSisrGPmiNnULd8fJE-52" value="" style="rounded=1;whiteSpace=wrap;html=1;fontSize=12;" vertex="1" parent="1">
          <mxGeometry x="93.75" y="298" width="935" height="182" as="geometry" />
        </mxCell>
        <mxCell id="tLoSisrGPmiNnULd8fJE-53" value="经销商名称：" style="text;html=1;strokeColor=none;fillColor=none;align=center;verticalAlign=middle;whiteSpace=wrap;rounded=0;" vertex="1" parent="1">
          <mxGeometry x="295.75" y="318" width="78" height="30" as="geometry" />
        </mxCell>
        <mxCell id="tLoSisrGPmiNnULd8fJE-54" value="所属公司：" style="text;html=1;strokeColor=none;fillColor=none;align=center;verticalAlign=middle;whiteSpace=wrap;rounded=0;" vertex="1" parent="1">
          <mxGeometry x="549.75" y="316" width="78" height="30" as="geometry" />
        </mxCell>
        <mxCell id="tLoSisrGPmiNnULd8fJE-55" value="联系人：" style="text;html=1;strokeColor=none;fillColor=none;align=center;verticalAlign=middle;whiteSpace=wrap;rounded=0;fontSize=12;" vertex="1" parent="1">
          <mxGeometry x="126.75" y="368" width="60" height="30" as="geometry" />
        </mxCell>
        <mxCell id="tLoSisrGPmiNnULd8fJE-56" value="联系人电话：" style="text;html=1;strokeColor=none;fillColor=none;align=center;verticalAlign=middle;whiteSpace=wrap;rounded=0;fontSize=12;" vertex="1" parent="1">
          <mxGeometry x="407.75" y="372" width="95" height="30" as="geometry" />
        </mxCell>
        <mxCell id="tLoSisrGPmiNnULd8fJE-57" value="地区：" style="text;html=1;strokeColor=none;fillColor=none;align=center;verticalAlign=middle;whiteSpace=wrap;rounded=0;fontSize=12;" vertex="1" parent="1">
          <mxGeometry x="749.75" y="318" width="60" height="30" as="geometry" />
        </mxCell>
        <mxCell id="tLoSisrGPmiNnULd8fJE-60" value="营业执照号：" style="text;html=1;strokeColor=none;fillColor=none;align=center;verticalAlign=middle;whiteSpace=wrap;rounded=0;" vertex="1" parent="1">
          <mxGeometry x="125.75" y="417" width="78" height="30" as="geometry" />
        </mxCell>
        <mxCell id="tLoSisrGPmiNnULd8fJE-61" value="图标" style="rounded=1;whiteSpace=wrap;html=1;" vertex="1" parent="1">
          <mxGeometry x="121.75" y="307" width="86" height="48" as="geometry" />
        </mxCell>
        <mxCell id="tLoSisrGPmiNnULd8fJE-63" value="积分数" style="rounded=1;whiteSpace=wrap;html=1;" vertex="1" parent="1">
          <mxGeometry x="75.25" y="274" width="76.5" height="45" as="geometry" />
        </mxCell>
      </root>
    </mxGraphModel>
  </diagram>
</mxfile>
